<svg width="150" height="50" viewBox="0 0 150 50" xmlns="http://www.w3.org/2000/svg">
<path fill="currentColor" fillRule="evenodd" clipRule="evenodd" d="M110 0H48V0.273438H46.9961L46.7031 1.35742C47.2362 1.42756 47.6684 1.55814 48 1.74917V2H48.3417L48.3438 2.00195C48.7148 2.33398 48.9004 2.67578 48.9004 3.02734C48.9004 3.4375 48.7246 3.89648 48.373 4.4043C47.7871 5.22461 46.5566 6.33789 44.6816 7.74414L30.5605 18.3789L33.6367 8.18359C34.3984 5.60547 34.9746 3.99414 35.3652 3.34961C35.7559 2.70508 36.3711 2.17773 37.2109 1.76758C37.8164 1.47461 38.7344 1.33789 39.9648 1.35742L40.2578 0.273438H25.3457L24.9941 1.35742H25.5801C27.0254 1.35742 27.9922 1.5625 28.4805 1.97266C28.9883 2.38281 29.2422 2.97852 29.2422 3.75977C29.2422 4.87305 28.9785 6.34766 28.4512 8.18359L21.4492 32.1777C20.707 34.6973 20.082 36.3574 19.5742 37.1582C19.2031 37.7051 18.627 38.1543 17.8457 38.5059C17.3184 38.7402 16.293 38.877 14.7695 38.916L14.3887 40H30.0918L30.5605 38.916C28.4121 38.7793 27.0645 38.5156 26.5176 38.125C25.9707 37.7344 25.6973 37.168 25.6973 36.4258C25.6973 35.7031 26.0195 34.2871 26.6641 32.1777L30.5605 19.0234L38.6172 31.6504C39.5938 33.1738 40.1602 34.1309 40.3164 34.5215C40.5117 35.0684 40.6094 35.6348 40.6094 36.2207C40.6094 36.8652 40.3262 37.4414 39.7598 37.9492C39.2129 38.457 38.2656 38.7793 36.918 38.916L36.6543 40H53.5879L53.9102 38.916C52.0352 38.916 50.5215 38.5449 49.3691 37.8027C48.2168 37.041 46.7617 35.3125 45.0039 32.6172L35.1602 17.4121L47.3184 8.18359C50.834 5.48828 52.7383 4.04297 53.0312 3.84766C54.0273 3.18359 54.9941 2.66602 55.9316 2.29492C56.186 2.1911 56.4556 2.09279 56.7403 2H110V0ZM62.4805 14.7832L64.3848 8.16211L62.832 8.39648L62.4805 9.50977C62.3438 9.028 62.1419 8.68294 61.875 8.47461C61.6146 8.26628 61.2858 8.16211 60.8887 8.16211C60.2246 8.16211 59.5182 8.43555 58.7695 8.98242C57.8125 9.67253 57.0215 10.5938 56.3965 11.7461C55.778 12.8919 55.4688 13.9824 55.4688 15.0176C55.4688 15.7077 55.6413 16.2513 55.9863 16.6484C56.3314 17.0391 56.7415 17.2344 57.2168 17.2344C57.7116 17.2344 58.2161 17.0749 58.7305 16.7559C59.4466 16.3132 60.2311 15.5352 61.084 14.4219L60.8789 15.1543C60.7357 15.6751 60.6641 16.0951 60.6641 16.4141C60.6641 16.681 60.7324 16.8828 60.8691 17.0195C61.0124 17.1628 61.224 17.2344 61.5039 17.2344C61.9076 17.2344 62.347 17.0586 62.8223 16.707C63.2975 16.349 63.7598 15.8314 64.209 15.1543L63.877 14.9199C63.4538 15.5124 63.1152 15.903 62.8613 16.0918C62.7246 16.196 62.6139 16.248 62.5293 16.248C62.4512 16.248 62.3861 16.2188 62.334 16.1602C62.2689 16.082 62.2363 15.9909 62.2363 15.8867C62.2363 15.8281 62.2461 15.7565 62.2656 15.6719L62.4805 14.7832ZM59.5801 9.25586C60.0488 8.86523 60.4915 8.66992 60.9082 8.66992C61.2793 8.66992 61.5723 8.79362 61.7871 9.04102C62.002 9.28841 62.1094 9.6888 62.1094 10.2422C62.1094 11.707 61.5527 13.1361 60.4395 14.5293C59.6061 15.5775 58.8346 16.1016 58.125 16.1016C57.8385 16.1016 57.5846 15.9746 57.3633 15.7207C57.1419 15.4603 57.0312 15.1087 57.0312 14.666C57.0312 13.7871 57.2884 12.804 57.8027 11.7168C58.3236 10.6296 58.916 9.80925 59.5801 9.25586ZM68.1152 12.6055L69.4141 8.16211L66.0352 8.76758L66.0938 9.11914L66.4648 9.06055C66.6602 9.0345 66.7969 9.02148 66.875 9.02148C67.0443 9.02148 67.1842 9.07682 67.2949 9.1875C67.4121 9.29167 67.4707 9.41536 67.4707 9.55859C67.4707 9.70833 67.3665 10.151 67.1582 10.8867L65.3809 17H66.8457L67.334 15.3887C67.5358 14.7311 67.7897 14.1257 68.0957 13.5723C68.6751 12.5241 69.2253 11.6647 69.7461 10.9941C70.2669 10.3171 70.7682 9.83203 71.25 9.53906C71.5039 9.38281 71.722 9.30469 71.9043 9.30469C72.028 9.30469 72.1322 9.347 72.2168 9.43164C72.3014 9.50977 72.3438 9.61393 72.3438 9.74414C72.3438 10.0176 72.2721 10.3984 72.1289 10.8867L70.9961 14.8125C70.7747 15.5742 70.6641 16.1113 70.6641 16.4238C70.6641 16.6712 70.7357 16.8665 70.8789 17.0098C71.0221 17.1595 71.2142 17.2344 71.4551 17.2344C71.7546 17.2344 72.0931 17.1074 72.4707 16.8535C73.0111 16.4824 73.584 15.8639 74.1895 14.998L73.8867 14.8125C73.4766 15.3724 73.099 15.7891 72.7539 16.0625C72.6432 16.1471 72.5488 16.1895 72.4707 16.1895C72.4121 16.1895 72.3568 16.1602 72.3047 16.1016C72.2526 16.0365 72.2266 15.9583 72.2266 15.8672C72.2266 15.763 72.2949 15.4733 72.4316 14.998L73.623 10.8867C73.8119 10.2357 73.9062 9.71484 73.9062 9.32422C73.9062 8.97917 73.7988 8.69922 73.584 8.48438C73.3756 8.26953 73.1087 8.16211 72.7832 8.16211C72.1842 8.16211 71.5592 8.44857 70.9082 9.02148C70.2637 9.5944 69.3327 10.7891 68.1152 12.6055ZM80.166 4.56836C79.9772 4.37956 79.7461 4.28516 79.4727 4.28516C79.1992 4.28516 78.9681 4.37956 78.7793 4.56836C78.5905 4.75716 78.4961 4.98828 78.4961 5.26172C78.4961 5.52865 78.5905 5.75977 78.7793 5.95508C78.9746 6.14388 79.2057 6.23828 79.4727 6.23828C79.7396 6.23828 79.9674 6.14388 80.1562 5.95508C80.3516 5.75977 80.4492 5.52865 80.4492 5.26172C80.4492 4.98828 80.3548 4.75716 80.166 4.56836ZM77.666 15.0078L79.5996 8.16211L76.2305 8.70898V9.08984C76.6797 9.01823 76.9759 8.98242 77.1191 8.98242C77.2949 8.98242 77.4316 9.028 77.5293 9.11914C77.6335 9.21029 77.6855 9.32747 77.6855 9.4707C77.6855 9.653 77.5814 10.1022 77.373 10.8184L76.1035 15.1934C75.9408 15.7533 75.8594 16.1536 75.8594 16.3945C75.8594 16.6354 75.944 16.8372 76.1133 17C76.2826 17.1562 76.5006 17.2344 76.7676 17.2344C77.1712 17.2344 77.5944 17.0618 78.0371 16.7168C78.6361 16.2546 79.1569 15.6849 79.5996 15.0078L79.2578 14.7832C78.8802 15.3236 78.5059 15.7402 78.1348 16.0332C77.998 16.1374 77.8809 16.1895 77.7832 16.1895C77.6986 16.1895 77.6237 16.1569 77.5586 16.0918C77.5 16.0267 77.4707 15.9421 77.4707 15.8379C77.4707 15.7467 77.5358 15.4701 77.666 15.0078ZM88.2812 14.2168L89.9805 8.39648H88.4961L88.2812 9.13867C87.8581 10.5514 87.4577 11.5833 87.0801 12.2344C86.709 12.8789 86.2337 13.5723 85.6543 14.3145C85.0814 15.0501 84.6224 15.5254 84.2773 15.7402C83.9323 15.9551 83.6523 16.0625 83.4375 16.0625C83.3008 16.0625 83.1901 16.0267 83.1055 15.9551C83.0273 15.877 82.9883 15.776 82.9883 15.6523C82.9883 15.4245 83.1152 14.8809 83.3691 14.0215L84.2871 10.8672C84.5475 9.96224 84.6777 9.33398 84.6777 8.98242C84.6777 8.74154 84.5996 8.54622 84.4434 8.39648C84.2936 8.24023 84.0983 8.16211 83.8574 8.16211C83.5059 8.16211 83.1217 8.30208 82.7051 8.58203C82.1582 8.9401 81.6406 9.49675 81.1523 10.252L81.4551 10.4668C81.9369 9.8418 82.2461 9.48047 82.3828 9.38281C82.5195 9.28516 82.6562 9.23633 82.793 9.23633C82.8581 9.23633 82.9167 9.26562 82.9688 9.32422C83.0273 9.3763 83.0566 9.44141 83.0566 9.51953C83.0566 9.69531 82.9525 10.1445 82.7441 10.8672L81.8945 13.8848C81.6081 14.8939 81.4648 15.6426 81.4648 16.1309C81.4648 16.4499 81.569 16.7135 81.7773 16.9219C81.9857 17.1302 82.2396 17.2344 82.5391 17.2344C83.1771 17.2344 83.8672 16.8893 84.6094 16.1992C85.3581 15.5091 86.2858 14.2559 87.3926 12.4395C86.9043 14.054 86.6081 15.1022 86.5039 15.584C86.4193 15.9486 86.377 16.2415 86.377 16.4629C86.377 16.6908 86.4486 16.8763 86.5918 17.0195C86.735 17.1628 86.9336 17.2344 87.1875 17.2344C87.5195 17.2344 87.8646 17.1107 88.2227 16.8633C88.763 16.4792 89.2904 15.8802 89.8047 15.0664L89.5117 14.8418C88.9714 15.5449 88.6328 15.9486 88.4961 16.0527C88.3659 16.1504 88.2454 16.1992 88.1348 16.1992C88.0631 16.1992 88.0046 16.1732 87.959 16.1211C87.9199 16.0625 87.9004 15.9746 87.9004 15.8574C87.9004 15.6296 88.0273 15.0827 88.2812 14.2168ZM97.2266 11.1602L97.8223 8.16211H97.4512C97.2624 8.4681 97.028 8.62109 96.748 8.62109C96.6374 8.62109 96.4128 8.55925 96.0742 8.43555C95.7422 8.30534 95.5306 8.23047 95.4395 8.21094C95.2702 8.17839 95.0814 8.16211 94.873 8.16211C94.1504 8.16211 93.5579 8.38021 93.0957 8.81641C92.64 9.2526 92.4121 9.78646 92.4121 10.418C92.4121 10.763 92.4935 11.1081 92.6562 11.4531C92.8255 11.7982 93.1999 12.3158 93.7793 13.0059C94.3652 13.696 94.7494 14.2363 94.9316 14.627C95.0358 14.8483 95.0879 15.0892 95.0879 15.3496C95.0879 15.7533 94.9414 16.0951 94.6484 16.375C94.362 16.6484 93.9714 16.7852 93.4766 16.7852C92.832 16.7852 92.3242 16.5801 91.9531 16.1699C91.582 15.7598 91.377 15.0599 91.3379 14.0703H90.9766L90.3809 17.2344H90.7422C90.8919 16.9349 91.1133 16.7852 91.4062 16.7852C91.5234 16.7852 91.6895 16.8242 91.9043 16.9023C92.5163 17.1237 93.0566 17.2344 93.5254 17.2344C94.3848 17.2344 95.0944 16.974 95.6543 16.4531C96.2207 15.9258 96.5039 15.3236 96.5039 14.6465C96.5039 14.2298 96.3802 13.7871 96.1328 13.3184C95.8854 12.8496 95.3385 12.153 94.4922 11.2285C94.1732 10.877 93.9648 10.6035 93.8672 10.4082C93.776 10.2129 93.7305 10.0078 93.7305 9.79297C93.7305 9.48047 93.8477 9.21354 94.082 8.99219C94.3229 8.77083 94.6452 8.66016 95.0488 8.66016C95.5501 8.66016 95.9701 8.85872 96.3086 9.25586C96.6471 9.653 96.8327 10.2878 96.8652 11.1602H97.2266ZM101.484 12.5957L104.229 3.11328L100.85 3.67969V4.06055L101.055 4.03125C101.296 3.99219 101.475 3.97266 101.592 3.97266C101.794 3.97266 101.963 4.03776 102.1 4.16797C102.243 4.29818 102.314 4.44792 102.314 4.61719L101.973 5.82812L98.7598 17H100.225L100.85 14.998C101.025 14.4577 101.25 13.9596 101.523 13.5039C102.409 12.0781 102.93 11.2643 103.086 11.0625C103.665 10.3203 104.176 9.8125 104.619 9.53906C104.86 9.39583 105.075 9.32422 105.264 9.32422C105.394 9.32422 105.498 9.36328 105.576 9.44141C105.661 9.51953 105.703 9.6237 105.703 9.75391C105.703 10.0339 105.632 10.418 105.488 10.9062L104.365 14.8125C104.137 15.5938 104.023 16.1276 104.023 16.4141C104.023 16.6549 104.098 16.8503 104.248 17C104.404 17.1562 104.603 17.2344 104.844 17.2344C105.065 17.2344 105.316 17.1562 105.596 17C105.882 16.8372 106.221 16.5508 106.611 16.1406C107.008 15.724 107.318 15.3431 107.539 14.998L107.236 14.8125C106.872 15.3203 106.504 15.7174 106.133 16.0039C106.022 16.0885 105.924 16.1309 105.84 16.1309C105.768 16.1309 105.703 16.1016 105.645 16.043C105.592 15.9844 105.566 15.9095 105.566 15.8184C105.566 15.7663 105.641 15.4928 105.791 14.998L106.982 10.9062C107.165 10.2943 107.256 9.77344 107.256 9.34375C107.256 8.98568 107.152 8.69922 106.943 8.48438C106.735 8.26953 106.475 8.16211 106.162 8.16211C105.557 8.16211 104.922 8.45508 104.258 9.04102C103.594 9.62695 102.669 10.8118 101.484 12.5957ZM110.674 14.1289C110.674 13.9141 110.697 13.6439 110.742 13.3184C112.064 13.1686 113.089 12.9603 113.818 12.6934C114.919 12.2962 115.752 11.7754 116.318 11.1309C116.748 10.6361 116.963 10.1185 116.963 9.57812C116.963 9.19401 116.797 8.86198 116.465 8.58203C116.133 8.30208 115.622 8.16211 114.932 8.16211C113.975 8.16211 113.044 8.44531 112.139 9.01172C111.234 9.57161 110.482 10.3594 109.883 11.375C109.284 12.3906 108.984 13.3835 108.984 14.3535C108.984 15.0762 109.225 15.737 109.707 16.3359C110.189 16.9349 110.905 17.2344 111.855 17.2344C113.255 17.2344 114.727 16.4694 116.27 14.9395L116.064 14.6562C115.212 15.3138 114.567 15.7402 114.131 15.9355C113.701 16.1243 113.252 16.2188 112.783 16.2188C112.197 16.2188 111.699 16.0169 111.289 15.6133C110.879 15.2031 110.674 14.7083 110.674 14.1289ZM113.164 12.2734C112.559 12.5404 111.774 12.7292 110.811 12.8398C111.162 11.4596 111.709 10.418 112.451 9.71484C113.2 9.00521 113.906 8.65039 114.57 8.65039C114.889 8.65039 115.133 8.73503 115.303 8.9043C115.479 9.07357 115.566 9.29492 115.566 9.56836C115.566 10.0176 115.365 10.4928 114.961 10.9941C114.564 11.4889 113.965 11.9154 113.164 12.2734ZM124.961 14.2168L126.66 8.39648H125.176L124.961 9.13867C124.538 10.5514 124.137 11.5833 123.76 12.2344C123.389 12.8789 122.913 13.5723 122.334 14.3145C121.761 15.0501 121.302 15.5254 120.957 15.7402C120.612 15.9551 120.332 16.0625 120.117 16.0625C119.98 16.0625 119.87 16.0267 119.785 15.9551C119.707 15.877 119.668 15.776 119.668 15.6523C119.668 15.4245 119.795 14.8809 120.049 14.0215L120.967 10.8672C121.227 9.96224 121.357 9.33398 121.357 8.98242C121.357 8.74154 121.279 8.54622 121.123 8.39648C120.973 8.24023 120.778 8.16211 120.537 8.16211C120.186 8.16211 119.801 8.30208 119.385 8.58203C118.838 8.9401 118.32 9.49675 117.832 10.252L118.135 10.4668C118.617 9.8418 118.926 9.48047 119.062 9.38281C119.199 9.28516 119.336 9.23633 119.473 9.23633C119.538 9.23633 119.596 9.26562 119.648 9.32422C119.707 9.3763 119.736 9.44141 119.736 9.51953C119.736 9.69531 119.632 10.1445 119.424 10.8672L118.574 13.8848C118.288 14.8939 118.145 15.6426 118.145 16.1309C118.145 16.4499 118.249 16.7135 118.457 16.9219C118.665 17.1302 118.919 17.2344 119.219 17.2344C119.857 17.2344 120.547 16.8893 121.289 16.1992C122.038 15.5091 122.965 14.2559 124.072 12.4395C123.584 14.054 123.288 15.1022 123.184 15.584C123.099 15.9486 123.057 16.2415 123.057 16.4629C123.057 16.6908 123.128 16.8763 123.271 17.0195C123.415 17.1628 123.613 17.2344 123.867 17.2344C124.199 17.2344 124.544 17.1107 124.902 16.8633C125.443 16.4792 125.97 15.8802 126.484 15.0664L126.191 14.8418C125.651 15.5449 125.312 15.9486 125.176 16.0527C125.046 16.1504 124.925 16.1992 124.814 16.1992C124.743 16.1992 124.684 16.1732 124.639 16.1211C124.6 16.0625 124.58 15.9746 124.58 15.8574C124.58 15.6296 124.707 15.0827 124.961 14.2168ZM133.906 11.1602L134.502 8.16211H134.131C133.942 8.4681 133.708 8.62109 133.428 8.62109C133.317 8.62109 133.092 8.55925 132.754 8.43555C132.422 8.30534 132.21 8.23047 132.119 8.21094C131.95 8.17839 131.761 8.16211 131.553 8.16211C130.83 8.16211 130.238 8.38021 129.775 8.81641C129.32 9.2526 129.092 9.78646 129.092 10.418C129.092 10.763 129.173 11.1081 129.336 11.4531C129.505 11.7982 129.88 12.3158 130.459 13.0059C131.045 13.696 131.429 14.2363 131.611 14.627C131.715 14.8483 131.768 15.0892 131.768 15.3496C131.768 15.7533 131.621 16.0951 131.328 16.375C131.042 16.6484 130.651 16.7852 130.156 16.7852C129.512 16.7852 129.004 16.5801 128.633 16.1699C128.262 15.7598 128.057 15.0599 128.018 14.0703H127.656L127.061 17.2344H127.422C127.572 16.9349 127.793 16.7852 128.086 16.7852C128.203 16.7852 128.369 16.8242 128.584 16.9023C129.196 17.1237 129.736 17.2344 130.205 17.2344C131.064 17.2344 131.774 16.974 132.334 16.4531C132.9 15.9258 133.184 15.3236 133.184 14.6465C133.184 14.2298 133.06 13.7871 132.812 13.3184C132.565 12.8496 132.018 12.153 131.172 11.2285C130.853 10.877 130.645 10.6035 130.547 10.4082C130.456 10.2129 130.41 10.0078 130.41 9.79297C130.41 9.48047 130.527 9.21354 130.762 8.99219C131.003 8.77083 131.325 8.66016 131.729 8.66016C132.23 8.66016 132.65 8.85872 132.988 9.25586C133.327 9.653 133.512 10.2878 133.545 11.1602H133.906ZM137.988 12.7129L140.762 3.11328L137.383 3.68945V4.03125C137.708 3.96615 137.946 3.93359 138.096 3.93359C138.324 3.93359 138.496 3.98568 138.613 4.08984C138.737 4.19401 138.799 4.32422 138.799 4.48047C138.799 4.60417 138.783 4.7474 138.75 4.91016L138.477 5.85742L135.234 17H136.758L137.764 13.5332L139.102 12.3711C139.707 15.0143 140.14 16.528 140.4 16.9121C140.55 17.127 140.762 17.2344 141.035 17.2344C141.348 17.2344 141.693 17.0944 142.07 16.8145C142.448 16.528 142.992 15.9388 143.701 15.0469L143.359 14.8027C142.975 15.3431 142.614 15.737 142.275 15.9844C142.126 16.0951 141.995 16.1504 141.885 16.1504C141.755 16.1504 141.628 16.0202 141.504 15.7598C141.38 15.4993 141.143 14.6725 140.791 13.2793C140.583 12.4395 140.407 11.7852 140.264 11.3164L141.104 10.5742C141.312 10.3854 141.745 10.0469 142.402 9.55859C142.734 9.3112 143.076 9.12565 143.428 9.00195C143.786 8.87175 144.209 8.79362 144.697 8.76758L144.795 8.39648H140.527L140.42 8.76758H140.762C141.048 8.76758 141.247 8.78385 141.357 8.81641C141.475 8.84896 141.553 8.89128 141.592 8.94336C141.631 8.99544 141.65 9.05078 141.65 9.10938C141.65 9.19401 141.592 9.31771 141.475 9.48047C141.11 9.97526 140.319 10.737 139.102 11.7656L137.988 12.7129ZM149.092 4.56836C148.903 4.37956 148.672 4.28516 148.398 4.28516C148.125 4.28516 147.894 4.37956 147.705 4.56836C147.516 4.75716 147.422 4.98828 147.422 5.26172C147.422 5.52865 147.516 5.75977 147.705 5.95508C147.9 6.14388 148.132 6.23828 148.398 6.23828C148.665 6.23828 148.893 6.14388 149.082 5.95508C149.277 5.75977 149.375 5.52865 149.375 5.26172C149.375 4.98828 149.281 4.75716 149.092 4.56836ZM146.592 15.0078L148.525 8.16211L145.156 8.70898V9.08984C145.605 9.01823 145.902 8.98242 146.045 8.98242C146.221 8.98242 146.357 9.028 146.455 9.11914C146.559 9.21029 146.611 9.32747 146.611 9.4707C146.611 9.653 146.507 10.1022 146.299 10.8184L145.029 15.1934C144.867 15.7533 144.785 16.1536 144.785 16.3945C144.785 16.6354 144.87 16.8372 145.039 17C145.208 17.1562 145.426 17.2344 145.693 17.2344C146.097 17.2344 146.52 17.0618 146.963 16.7168C147.562 16.2546 148.083 15.6849 148.525 15.0078L148.184 14.7832C147.806 15.3236 147.432 15.7402 147.061 16.0332C146.924 16.1374 146.807 16.1895 146.709 16.1895C146.624 16.1895 146.549 16.1569 146.484 16.0918C146.426 16.0267 146.396 15.9421 146.396 15.8379C146.396 15.7467 146.462 15.4701 146.592 15.0078ZM72.5938 43.9414L74.6055 21.9102H73.9219L58.1016 43.4336C56.6432 45.4128 55.543 46.7083 54.8008 47.3203C54.4428 47.6143 54.0567 47.8409 53.6422 48H0V50H62V48H58.7332C58.611 47.9395 58.5046 47.8692 58.4141 47.7891C58.0755 47.4896 57.9062 47.1315 57.9062 46.7148C57.9062 46.4023 57.9844 46.0703 58.1406 45.7188C58.2969 45.3542 58.681 44.7617 59.293 43.9414L61.9883 40.2891H69.5664L69.2539 43.6484C69.1237 45.1458 68.987 46.0964 68.8438 46.5C68.6354 47.0729 68.3424 47.4831 67.9648 47.7305C67.431 48.0951 66.7409 48.2773 65.8945 48.2773H65.4453L65.2305 49H75.6602L75.875 48.2773C74.8724 48.2773 74.1562 48.1862 73.7266 48.0039C73.3099 47.8216 72.9779 47.5417 72.7305 47.1641C72.5352 46.8906 72.4375 46.4935 72.4375 45.9727C72.4375 45.6471 72.4896 44.9701 72.5938 43.9414ZM63.0625 38.8633L70.7383 28.4141L69.7227 38.8633H63.0625ZM82.4141 34.1621L79.0449 34.709L79.1133 35.0703C79.4779 35.0117 79.7285 34.9824 79.8652 34.9824C80.0801 34.9824 80.2526 35.0345 80.3828 35.1387C80.4805 35.2168 80.5293 35.3145 80.5293 35.4316C80.5293 35.7311 80.4251 36.2324 80.2168 36.9355L78.4102 43H79.9043L80.2168 41.7695C80.2559 41.6198 80.4121 41.1738 80.6855 40.4316C80.8809 39.8913 81.1152 39.4062 81.3887 38.9766C82.0202 37.9609 82.6061 37.1341 83.1465 36.4961C83.4915 36.0794 83.7487 35.8255 83.918 35.7344C84.0156 35.6823 84.1198 35.6562 84.2305 35.6562C84.3021 35.6562 84.3639 35.6823 84.416 35.7344C84.4616 35.7734 84.4909 35.8548 84.5039 35.9785C84.5299 36.1803 84.5951 36.3301 84.6992 36.4277C84.8099 36.5254 84.9401 36.5742 85.0898 36.5742C85.3828 36.5742 85.6074 36.4277 85.7637 36.1348C85.985 35.7441 86.0957 35.334 86.0957 34.9043C86.0957 34.6634 86.0339 34.4811 85.9102 34.3574C85.7865 34.2272 85.6172 34.1621 85.4023 34.1621C85.0703 34.1621 84.6406 34.3835 84.1133 34.8262C83.1823 35.6009 82.1471 36.9616 81.0078 38.9082L82.4141 34.1621ZM90.2266 34.3965L90.9883 31.7402H90.5586C89.9727 32.6973 89.4421 33.3711 88.9668 33.7617C88.4915 34.1458 87.8958 34.4355 87.1797 34.6309L87.082 35.0117H88.5566L86.9258 40.666C86.7174 41.3887 86.6133 41.9258 86.6133 42.2773C86.6133 42.5573 86.7044 42.7884 86.8867 42.9707C87.069 43.1465 87.3034 43.2344 87.5898 43.2344C87.9609 43.2344 88.3288 43.1107 88.6934 42.8633C89.2272 42.5052 89.7936 41.89 90.3926 41.0176L90.0703 40.7734C89.5299 41.444 89.1816 41.8444 89.0254 41.9746C88.7585 42.2025 88.5436 42.3164 88.3809 42.3164C88.3092 42.3164 88.2474 42.2871 88.1953 42.2285C88.1432 42.1699 88.1172 42.0853 88.1172 41.9746C88.1172 41.7923 88.2083 41.3919 88.3906 40.7734L90.0703 35.0117H91.5938L91.7598 34.3965H90.2266Z"/>
</svg>
